<svg id="visual" viewBox="0 0 960 540" width="960" height="540" xmlns="http://www.w3.org/2000/svg" xmlns:xlink="http://www.w3.org/1999/xlink" version="1.1"><rect x="0" y="0" width="960" height="540" fill="#e9c46a"></rect><defs><linearGradient id="grad1_0" x1="43.8%" y1="0%" x2="100%" y2="100%"><stop offset="14.444444444444446%" stop-color="#e9c46a" stop-opacity="1"></stop><stop offset="85.55555555555554%" stop-color="#e9c46a" stop-opacity="1"></stop></linearGradient></defs><defs><linearGradient id="grad2_0" x1="0%" y1="0%" x2="56.3%" y2="100%"><stop offset="14.444444444444446%" stop-color="#e9c46a" stop-opacity="1"></stop><stop offset="85.55555555555554%" stop-color="#e9c46a" stop-opacity="1"></stop></linearGradient></defs><g transform="translate(960, 0)"><path d="M0 189C-21.7 179.6 -43.5 170.1 -67.4 162.6C-91.2 155.1 -117.2 149.4 -133.6 133.6C-150 117.9 -156.8 92.1 -164.5 68.1C-172.1 44.2 -180.5 22.1 -189 0L0 0Z" fill="#e76f51"></path></g><g transform="translate(0, 540)"><path d="M0 -189C21.5 -179.1 43 -169.1 67 -161.7C90.9 -154.2 117.4 -149.3 133.6 -133.6C149.9 -118 156 -91.8 163.5 -67.7C171.1 -43.7 180 -21.8 189 0L0 0Z" fill="#e76f51"></path></g></svg>