<svg id="visual" viewBox="0 0 960 540" width="960" height="540" xmlns="http://www.w3.org/2000/svg" xmlns:xlink="http://www.w3.org/1999/xlink" version="1.1"><rect x="0" y="0" width="960" height="540" fill="#e9c46a"></rect><path d="M0 442L22.8 437.7C45.7 433.3 91.3 424.7 137 430.7C182.7 436.7 228.3 457.3 274 464.3C319.7 471.3 365.3 464.7 411.2 451.7C457 438.7 503 419.3 548.8 420.5C594.7 421.7 640.3 443.3 686 443.3C731.7 443.3 777.3 421.7 823 415.5C868.7 409.3 914.3 418.7 937.2 423.3L960 428L960 541L937.2 541C914.3 541 868.7 541 823 541C777.3 541 731.7 541 686 541C640.3 541 594.7 541 548.8 541C503 541 457 541 411.2 541C365.3 541 319.7 541 274 541C228.3 541 182.7 541 137 541C91.3 541 45.7 541 22.8 541L0 541Z" fill="#e76f51" stroke-linecap="round" stroke-linejoin="miter"></path></svg>